Coordinates
version=1
nRows=5
nColumns=42
inDegrees=yes

Units are S.I. units (second, meters, Newtons, ...)
If the header above contains a line with 'inDegrees', this indicates whether rotational values are in degrees (yes) or radians (no).

endheader
time	pelvis_tilt	pelvis_list	pelvis_rotation	pelvis_tx	pelvis_ty	pelvis_tz	hip_flexion_r	hip_adduction_r	hip_rotation_r	knee_angle_r	knee_adduction_r	knee_angle_r_beta	ankle_angle_r	subtalar_angle_r	mtp_angle_r	hip_flexion_l	hip_adduction_l	hip_rotation_l	knee_angle_l	knee_adduction_l	knee_angle_l_beta	ankle_angle_l	subtalar_angle_l	mtp_angle_l	lumbar_extension	lumbar_bending	lumbar_rotation	arm_flex_r	arm_add_r	arm_rot_r	elbow_flex_r	pro_sup_r	wrist_flex_r	wrist_dev_r	arm_flex_l	arm_add_l	arm_rot_l	elbow_flex_l	pro_sup_l	wrist_flex_l	wrist_dev_l
      2.43000000	     11.78165154	      4.31079293	      3.58206089	      0.62474596	      0.93321943	     -0.28493286	      4.69294459	     -5.13778546	     -1.05150563	     61.97479253	      4.23412192	      1.08166418	      4.98685151	    -15.03139246	     -7.50634794	      0.35389327	      9.01799389	    -23.39052063	     24.30149688	     -7.32617952	      0.42414113	     20.42841312	     18.90052554	     -7.50634794	    -43.50873002	     -7.49723402	     -2.23809457	      2.52922980	     -8.76219048	     10.34288422	     39.68391970	     90.00000001	      0.00000000	      0.00000000	     -2.23242380	    -15.05787329	     20.05890347	     50.64029877	     90.00000001	      0.00000000	      0.00000000
      2.44000000	     11.65530274	      4.29519663	      3.50297989	      0.62909362	      0.93308731	     -0.28507567	      6.08779753	     -5.07014540	     -0.92064249	     61.73672225	      3.76642854	      1.07750907	      5.92273669	    -14.59355307	     -7.50601986	      0.24399961	      8.84294871	    -25.13958317	     24.24372942	     -7.78874902	      0.42313290	     20.89091142	     21.72054977	     -7.50601986	    -43.42488173	     -7.46422975	     -2.20987302	      2.49152164	     -8.71666994	     10.31135918	     39.81125438	     90.00000001	      0.00000000	      0.00000000	     -2.17316461	    -15.07739602	     20.17252077	     50.51790502	     90.00000001	      0.00000000	      0.00000000
      2.45000000	     11.60862078	      4.27998805	      3.47245015	      0.63340547	      0.93331948	     -0.28524273	      7.28205959	     -4.93790159	     -0.84650929	     61.19838266	      3.26527036	      1.06811327	      6.61682564	    -14.65672550	     -7.50577911	     -0.16877761	      8.79272702	    -25.81570092	     23.90004421	     -7.89782184	      0.41713446	     21.10060887	     22.82076997	     -7.50577911	    -43.44843004	     -7.39392835	     -2.21346499	      2.49647752	     -8.66838398	     10.32322906	     39.89501411	     90.00000001	      0.00000000	      0.00000000	     -2.11374420	    -15.08037700	     20.20422340	     50.37044883	     90.00000001	      0.00000000	      0.00000000
      2.46000000	     11.49973151	      4.29341037	      3.49103329	      0.63761296	      0.93343490	     -0.28549027	      8.49786769	     -4.84289435	     -0.76965782	     60.51705849	      2.82504513	      1.05622192	      7.21736052	    -14.77376261	     -7.50570934	     -0.50192396	      8.87308197	    -26.04630837	     23.57665925	     -7.98985562	      0.41149033	     21.24167943	     22.90031327	     -7.50570934	    -43.41579637	     -7.32682393	     -2.27743431	      2.51265200	     -8.61222805	     10.33451231	     39.94787370	     90.00000001	      0.00000000	      0.00000000	     -2.11362320	    -15.11322601	     20.21939339	     50.30269131	     90.00000001	      0.00000000	      0.00000000
      2.47000000	     11.40944299	      4.34259871	      3.47125559	      0.64195540	      0.93356485	     -0.28569774	      9.63411914	     -4.79979562	     -0.65185559	     59.67220219	      2.43548486	      1.04147640	      7.78519850	    -14.93958163	     -7.50564488	     -0.92397310	      9.01852970	    -26.26601823	     23.12987299	     -8.07195989	      0.40369244	     21.36260666	     23.18473777	     -7.50564488	    -43.38616906	     -7.30514753	     -2.33964020	      2.50654825	     -8.55239986	     10.33179092	     40.00166862	     90.00000001	      0.00000000	      0.00000000	     -2.13294350	    -15.14923517	     20.24734836	     50.17590074	     90.00000001	      0.00000000	      0.00000000
